<svg xmlns="http://www.w3.org/2000/svg" version="1.1" xmlns:xlink="http://www.w3.org/1999/xlink" xmlns:svgjs="http://svgjs.dev/svgjs" width="1000" height="1000" viewBox="0 0 1000 1000"><rect width="1000" height="1000" fill="#000000"></rect><g transform="matrix(0.7,0,0,0.7,149.57575757575756,444.7026739834513)"><svg viewBox="0 0 396 63" data-background-color="#046380" preserveAspectRatio="xMidYMid meet" height="159" width="1000" xmlns="http://www.w3.org/2000/svg" xmlns:xlink="http://www.w3.org/1999/xlink"><g id="tight-bounds" transform="matrix(1,0,0,1,0.2400000000000091,-0.19962678308561976)"><svg viewBox="0 0 395.52 63.39925356617125" height="63.39925356617125" width="395.52"><g><svg viewBox="0 0 526.7881022200942 84.44066663706991" height="63.39925356617125" width="395.52"><g><rect width="7.577061154327299" height="84.44066663706991" x="103.85580244187346" y="0" fill="#ffffff" opacity="1" stroke-width="0" stroke="transparent" fill-opacity="1" class="rect-r$-0" data-fill-palette-color="primary" rx="1%" id="r$-0" data-palette-color="#ffffff"></rect></g><g transform="matrix(1,0,0,1,131.26810222009422,0.2100514095449455)"><svg viewBox="0 0 395.52 84.02056381798002" height="84.02056381798002" width="395.52"><g id="textblocktransform"><svg viewBox="0 0 395.52 84.02056381798002" height="84.02056381798002" width="395.52" id="textblock"><g><svg viewBox="0 0 395.52 84.02056381798002" height="84.02056381798002" width="395.52"><g transform="matrix(1,0,0,1,0,0)"><svg width="395.52" viewBox="2.05 -37.85 225.23 47.85" height="84.02056381798002" data-palette-color="#ffffff"><path d="M15.45 0.4Q11.5 0.4 7.83-0.83 4.15-2.05 2.05-4L2.05-4 3.9-7.9Q5.9-6.1 9.03-4.98 12.15-3.85 15.45-3.85L15.45-3.85Q19.8-3.85 21.95-5.33 24.1-6.8 24.1-9.25L24.1-9.25Q24.1-11.05 22.93-12.18 21.75-13.3 20.03-13.9 18.3-14.5 15.15-15.25L15.15-15.25Q11.2-16.2 8.78-17.15 6.35-18.1 4.63-20.08 2.9-22.05 2.9-25.4L2.9-25.4Q2.9-28.2 4.38-30.45 5.85-32.7 8.85-34.05 11.85-35.4 16.3-35.4L16.3-35.4Q19.4-35.4 22.4-34.6 25.4-33.8 27.55-32.3L27.55-32.3 25.9-28.3Q23.7-29.7 21.2-30.43 18.7-31.15 16.3-31.15L16.3-31.15Q12.05-31.15 9.93-29.6 7.8-28.05 7.8-25.6L7.8-25.6Q7.8-23.8 9-22.68 10.2-21.55 11.98-20.93 13.75-20.3 16.8-19.6L16.8-19.6Q20.75-18.65 23.15-17.7 25.55-16.75 27.28-14.8 29-12.85 29-9.55L29-9.55Q29-6.8 27.5-4.53 26-2.25 22.95-0.93 19.9 0.4 15.45 0.4L15.45 0.4ZM35.6 0L35.6-26.5 40.4-26.5 40.4 0 35.6 0ZM38-31.6Q36.6-31.6 35.67-32.5 34.75-33.4 34.75-34.7L34.75-34.7Q34.75-36 35.67-36.93 36.6-37.85 38-37.85L38-37.85Q39.4-37.85 40.32-36.98 41.25-36.1 41.25-34.8L41.25-34.8Q41.25-33.45 40.32-32.52 39.4-31.6 38-31.6L38-31.6ZM62.95-5L64.45-1.55Q63.4-0.65 61.85-0.18 60.3 0.3 58.65 0.3L58.65 0.3Q54.65 0.3 52.45-1.85 50.25-4 50.25-8L50.25-8 50.25-22.55 45.75-22.55 45.75-26.5 50.25-26.5 50.25-32.3 55.05-32.3 55.05-26.5 62.65-26.5 62.65-22.55 55.05-22.55 55.05-8.2Q55.05-6.05 56.12-4.9 57.2-3.75 59.2-3.75L59.2-3.75Q61.4-3.75 62.95-5L62.95-5ZM93.29-13.1Q93.29-12.55 93.19-11.65L93.19-11.65 71.69-11.65Q72.14-8.15 74.77-6.03 77.39-3.9 81.29-3.9L81.29-3.9Q86.04-3.9 88.94-7.1L88.94-7.1 91.59-4Q89.79-1.9 87.12-0.8 84.44 0.3 81.14 0.3L81.14 0.3Q76.94 0.3 73.69-1.43 70.44-3.15 68.67-6.25 66.89-9.35 66.89-13.25L66.89-13.25Q66.89-17.1 68.62-20.2 70.34-23.3 73.37-25.03 76.39-26.75 80.19-26.75L80.19-26.75Q83.99-26.75 86.97-25.03 89.94-23.3 91.62-20.2 93.29-17.1 93.29-13.1L93.29-13.1ZM80.19-22.7Q76.74-22.7 74.42-20.6 72.09-18.5 71.69-15.1L71.69-15.1 88.69-15.1Q88.29-18.45 85.97-20.58 83.64-22.7 80.19-22.7L80.19-22.7ZM109.64-33.45Q105.34-33.45 105.34-28.8L105.34-28.8 105.34-26.5 113.04-26.5 113.04-22.55 105.44-22.55 105.44 0 100.64 0 100.64-22.55 96.14-22.55 96.14-26.5 100.64-26.5 100.64-28.85Q100.64-32.8 102.94-35.1 105.24-37.4 109.39-37.4L109.39-37.4Q110.99-37.4 112.39-37 113.79-36.6 114.79-35.85L114.79-35.85 113.34-32.2Q111.69-33.45 109.64-33.45L109.64-33.45ZM128.54 0.3Q124.59 0.3 121.44-1.45 118.29-3.2 116.51-6.28 114.74-9.35 114.74-13.25L114.74-13.25Q114.74-17.15 116.51-20.23 118.29-23.3 121.44-25.03 124.59-26.75 128.54-26.75L128.54-26.75Q132.49-26.75 135.61-25.03 138.74-23.3 140.51-20.23 142.29-17.15 142.29-13.25L142.29-13.25Q142.29-9.35 140.51-6.28 138.74-3.2 135.61-1.45 132.49 0.3 128.54 0.3L128.54 0.3ZM128.54-3.9Q131.09-3.9 133.11-5.08 135.14-6.25 136.29-8.38 137.44-10.5 137.44-13.25L137.44-13.25Q137.44-16 136.29-18.13 135.14-20.25 133.11-21.4 131.09-22.55 128.54-22.55L128.54-22.55Q125.99-22.55 123.96-21.4 121.94-20.25 120.76-18.13 119.59-16 119.59-13.25L119.59-13.25Q119.59-10.5 120.76-8.38 121.94-6.25 123.96-5.08 125.99-3.9 128.54-3.9L128.54-3.9ZM153.54-22.05Q154.79-24.35 157.24-25.55 159.69-26.75 163.19-26.75L163.19-26.75 163.19-22.1Q162.79-22.15 162.09-22.15L162.09-22.15Q158.19-22.15 155.96-19.83 153.74-17.5 153.74-13.2L153.74-13.2 153.74 0 148.94 0 148.94-26.5 153.54-26.5 153.54-22.05ZM189.63-26.5L194.18-26.5 194.18-3.6Q194.18 3.35 190.73 6.68 187.28 10 180.43 10L180.43 10Q176.68 10 173.28 8.97 169.88 7.95 167.78 6.05L167.78 6.05 170.08 2.35Q171.93 3.95 174.66 4.88 177.38 5.8 180.28 5.8L180.28 5.8Q184.93 5.8 187.16 3.6 189.38 1.4 189.38-3.1L189.38-3.1 189.38-5.2Q187.68-3.15 185.21-2.13 182.73-1.1 179.83-1.1L179.83-1.1Q176.03-1.1 172.96-2.73 169.88-4.35 168.13-7.28 166.38-10.2 166.38-13.95L166.38-13.95Q166.38-17.7 168.13-20.63 169.88-23.55 172.96-25.15 176.03-26.75 179.83-26.75L179.83-26.75Q182.83-26.75 185.41-25.65 187.98-24.55 189.63-22.4L189.63-22.4 189.63-26.5ZM180.38-5.3Q182.98-5.3 185.06-6.4 187.13-7.5 188.31-9.47 189.48-11.45 189.48-13.95L189.48-13.95Q189.48-17.8 186.93-20.18 184.38-22.55 180.38-22.55L180.38-22.55Q176.33-22.55 173.78-20.18 171.23-17.8 171.23-13.95L171.23-13.95Q171.23-11.45 172.41-9.47 173.58-7.5 175.66-6.4 177.73-5.3 180.38-5.3L180.38-5.3ZM227.28-13.1Q227.28-12.55 227.18-11.65L227.18-11.65 205.68-11.65Q206.13-8.15 208.76-6.03 211.38-3.9 215.28-3.9L215.28-3.9Q220.03-3.9 222.93-7.1L222.93-7.1 225.58-4Q223.78-1.9 221.11-0.8 218.43 0.3 215.13 0.3L215.13 0.3Q210.93 0.3 207.68-1.43 204.43-3.15 202.66-6.25 200.88-9.35 200.88-13.25L200.88-13.25Q200.88-17.1 202.61-20.2 204.33-23.3 207.36-25.03 210.38-26.75 214.18-26.75L214.18-26.75Q217.98-26.75 220.96-25.03 223.93-23.3 225.61-20.2 227.28-17.1 227.28-13.1L227.28-13.1ZM214.18-22.7Q210.73-22.7 208.41-20.6 206.08-18.5 205.68-15.1L205.68-15.1 222.68-15.1Q222.28-18.45 219.96-20.58 217.63-22.7 214.18-22.7L214.18-22.7Z" opacity="1" transform="matrix(1,0,0,1,0,0)" fill="#ffffff" class="wordmark-text-0" data-fill-palette-color="primary" id="text-0"></path></svg></g></svg></g></svg></g></svg></g><g transform="matrix(1,0,0,1,0,0.2100514095449455)"><svg viewBox="0 0 84.02056381798002 84.02056381798002" height="84.02056381798002" width="84.02056381798002"><g><svg xmlns="http://www.w3.org/2000/svg" xmlns:xlink="http://www.w3.org/1999/xlink" version="1.1" x="0" y="0" viewBox="0 0 128 128" enable-background="new 0 0 128 128" xml:space="preserve" height="84.02056381798002" width="84.02056381798002" class="icon-icon-0" data-fill-palette-color="accent" id="icon-0"><rect x="37" y="97" width="4" height="4" fill="#ffffff" data-fill-palette-color="accent"></rect><rect x="38" y="113" width="36" height="4" fill="#ffffff" data-fill-palette-color="accent"></rect><rect x="21" y="97" width="4" height="4" fill="#ffffff" data-fill-palette-color="accent"></rect><rect x="21" y="113" width="4" height="4" fill="#ffffff" data-fill-palette-color="accent"></rect><rect x="69" y="97" width="4" height="4" fill="#ffffff" data-fill-palette-color="accent"></rect><rect x="53" y="97" width="4" height="4" fill="#ffffff" data-fill-palette-color="accent"></rect><rect x="85" y="97" width="4" height="4" fill="#ffffff" data-fill-palette-color="accent"></rect><rect x="102" y="113" width="4" height="4" fill="#ffffff" data-fill-palette-color="accent"></rect><rect x="101" y="97" width="4" height="4" fill="#ffffff" data-fill-palette-color="accent"></rect><rect x="86" y="113" width="4" height="4" fill="#ffffff" data-fill-palette-color="accent"></rect><path d="M124 0H4C1.791 0 0 1.791 0 4v14h128V4C128 1.791 126.209 0 124 0zM106 12h-4c-1.105 0-2-0.895-2-2s0.895-2 2-2h4c1.105 0 2 0.895 2 2S107.105 12 106 12zM118 12h-4c-1.105 0-2-0.895-2-2s0.895-2 2-2h4c1.105 0 2 0.895 2 2S119.105 12 118 12z" fill="#ffffff" data-fill-palette-color="accent"></path><path d="M0 38v26c0 2.209 1.791 4 4 4h54.67v4c0 2.209 1.791 4 4 4H106v3h-1c-2.209 0-4 1.791-4 4v3H14C8.477 86 4 90.477 4 96v22c0 5.523 4.477 10 10 10h100c5.523 0 10-4.477 10-10V96c0.026-5.155-3.871-9.485-9-10v-3c0-2.209-1.791-4-4-4h-1v-3c0-2.209-1.791-4-4-4H62.67v-4H124c2.209 0 4-1.791 4-4V22H0V38zM65 97c0-2.209 1.791-4 4-4h4c2.209 0 4 1.791 4 4v4c0 2.209-1.791 4-4 4h-4c-2.209 0-4-1.791-4-4V97zM49 97c0-2.209 1.791-4 4-4h4c2.209 0 4 1.791 4 4v4c0 2.209-1.791 4-4 4h-4c-2.209 0-4-1.791-4-4V97zM29 117c0 2.209-1.791 4-4 4h-4c-2.209 0-4-1.791-4-4v-4c0-2.209 1.791-4 4-4h4c2.209 0 4 1.791 4 4V117zM29 101c0 2.209-1.791 4-4 4h-4c-2.209 0-4-1.791-4-4v-4c0-2.209 1.791-4 4-4h4c2.209 0 4 1.791 4 4V101zM33 97c0-2.209 1.791-4 4-4h4c2.209 0 4 1.791 4 4v4c0 2.209-1.791 4-4 4h-4c-2.209 0-4-1.791-4-4V97zM78 117c0 2.209-1.791 4-4 4H38c-2.209 0-4-1.791-4-4v-4c0-2.209 1.791-4 4-4h36c2.209 0 4 1.791 4 4V117zM81 97c0-2.209 1.791-4 4-4h4c2.209 0 4 1.791 4 4v4c0 2.209-1.791 4-4 4h-4c-2.209 0-4-1.791-4-4V97zM94 117c0 2.209-1.791 4-4 4h-4c-2.209 0-4-1.791-4-4v-4c0-2.209 1.791-4 4-4h4c2.209 0 4 1.791 4 4V117zM97 97c0-2.209 1.791-4 4-4h4c2.209 0 4 1.791 4 4v4c0 2.209-1.791 4-4 4h-4c-2.209 0-4-1.791-4-4V97zM110 117c0 2.209-1.791 4-4 4h-4c-2.209 0-4-1.791-4-4v-4c0-2.209 1.791-4 4-4h4c2.209 0 4 1.791 4 4V117zM111 83v3h-6v-3H111zM116 43c0-1.105 0.895-2 2-2s2 0.895 2 2v21h-4V43zM8 43c0-1.105 0.895-2 2-2s2 0.895 2 2v21H8V43z" fill="#ffffff" data-fill-palette-color="accent"></path></svg></g></svg></g></svg></g><defs></defs></svg><rect width="395.52" height="63.39925356617125" fill="none" stroke="none" visibility="hidden"></rect></g></svg></g></svg>