<?xml version="1.0" encoding="utf-8"?>
<!-- Generator: Adobe Illustrator 26.4.1, SVG Export Plug-In . SVG Version: 6.00 Build 0)  -->
<svg version="1.0" id="katman_1" xmlns="http://www.w3.org/2000/svg" xmlns:xlink="http://www.w3.org/1999/xlink" x="0px" y="0px"
	 viewBox="0 0 841.89 595.28" style="enable-background:new 0 0 841.89 595.28;" xml:space="preserve">
<style type="text/css">
	.st0{fill:#2AB5B5;}
	.st1{fill:#004847;}
</style>
<g>
	<path class="st0" d="M229.71,439.05v-72.35l1.5-1.5h18.09l1.5,1.5v72.35l-1.5,1.5h-18.09L229.71,439.05z"/>
	<path class="st0" d="M229.71,228.01v-72.35l1.5-1.5h18.09l1.5,1.5v72.35l-1.5,1.5h-18.09L229.71,228.01z"/>
	<path class="st0" d="M167.46,388.19h-2.48l-12.44-12.44v-2.48l23.31-23.33l13.17,0.02l1.76,1.73v13.17L167.46,388.19z"/>
	<path class="st0" d="M152.54,222.11v-2.51l12.44-12.42h2.48l23.31,23.31v13.14l-1.76,1.78h-13.17L152.54,222.11z"/>
	<path class="st0" d="M70.68,286.79h102.5l1.5,1.5v18.11l-1.5,1.5H70.68l-1.5-1.5v-18.11L70.68,286.79z"/>
	<path class="st0" d="M674.05,286.82h96.45l1.5,1.5v18.09l-1.5,1.5h-104l-1.5-1.5l7.52-18.09l1.5-1.5H674.05z"/>
</g>
<g>
	<path class="st1" d="M274.18,335.06h-18.09l-1.5-1.5v-42.33c0-7.54-2.95-13.38-12.04-13.56c-4.69-0.12-10.03,0-15.74,0.23
		l-0.87,0.87v17.1v37.67l-1.5,1.5h-18.09l-1.5-1.5v-72.35l1.5-1.5h40.69c15.81,0,28.63,12.82,28.63,28.63v45.22l-1.5,1.5V335.06z"/>
	<path class="st1" d="M361.77,303.38l-1.5,1.5h-46.76l-1.5,1.5c0,3.02,3.02,12.07,15.09,12.07c4.52,0,9.04-1.5,10.57-4.52l1.5-1.5
		h18.09l1.5,1.5c-1.5,9.04-9.04,22.63-31.67,22.63c-25.63,0-37.7-18.09-37.7-39.22c0-21.13,12.07-39.22,36.2-39.22
		c24.13,0,36.2,18.09,36.2,39.22v6.02V303.38z M339.14,288.29c0-1.5-1.5-12.07-13.56-12.07c-12.07,0-13.56,10.57-13.56,12.07
		l1.5,1.5h24.13L339.14,288.29z"/>
	<path class="st1" d="M403.99,312.42c0,3.02,1.5,4.52,4.52,4.52h13.57l1.5,1.5v15.09l-1.5,1.5h-13.57
		c-13.57,0-25.63-6.04-25.63-22.63v-33.17l-1.5-1.5h-10.56l-1.5-1.5v-15.09l1.5-1.5h10.56l1.5-1.5v-13.56l1.5-1.5h18.09l1.5,1.5
		v13.56l1.5,1.5h16.59l1.5,1.5v15.09l-1.5,1.5h-16.59l-1.5,1.5v33.17L403.99,312.42z"/>
	<path class="st1" d="M459.8,335.06h-18.09l-1.5-1.5V230.99l1.5-1.5h18.09l1.5,1.5v102.55l-1.5,1.5V335.06z"/>
	<path class="st1" d="M500.52,247.57h-18.09l-1.5-1.5v-15.09l1.5-1.5h18.09l1.5,1.5v15.09L500.52,247.57z M500.52,335.06h-18.09
		l-1.5-1.5v-72.39l1.5-1.5h18.09l1.5,1.5v72.39L500.52,335.06z"/>
	<path class="st1" d="M571.41,230.99v15.09l-1.5,1.5h-13.57c-3.02,0-4.52,1.5-4.52,4.52v6.04l1.5,1.5h15.09l1.5,1.5v15.09l-1.5,1.5
		h-15.09l-1.5,1.5v54.28l-1.5,1.5h-18.09l-1.5-1.5v-54.28l-1.5-1.5h-10.57l-1.5-1.5v-15.09l1.5-1.5h10.57l1.5-1.5v-6.04
		c0-16.59,12.07-22.63,25.63-22.63h13.56l1.5,1.5L571.41,230.99z"/>
	<path class="st1" d="M627.19,336.55c-6.05,15.09-12.07,24.13-33.17,24.13h-7.54l-1.5-1.5V344.1l1.5-1.5h7.54
		c7.54,0,9.04-1.5,10.56-6.02v-1.5l-24.13-58.83v-15.09l1.5-1.5h13.57l1.5,1.5l18.09,51.28h1.5l18.09-51.28l1.5-1.5h13.57l1.5,1.5
		v15.09l-24.13,60.33L627.19,336.55z"/>
</g>
</svg>
