<svg xmlns="http://www.w3.org/2000/svg" version="1.1" xmlns:xlink="http://www.w3.org/1999/xlink" xmlns:svgjs="http://svgjs.dev/svgjs" width="128" height="128" viewBox="0 0 128 128"><g transform="matrix(0.8046875,0,0,0.8046875,12.760752631578946,12.760752631578946)"><svg viewBox="0 0 95 95" data-background-color="#046380" preserveAspectRatio="xMidYMid meet" height="128" width="128" xmlns="http://www.w3.org/2000/svg" xmlns:xlink="http://www.w3.org/1999/xlink"><g id="tight-bounds" transform="matrix(1,0,0,1,-0.24049999999999727,-0.24049999999999727)"><svg viewBox="0 0 95.481 95.481" height="95.481" width="95.481"><g><svg viewBox="0 0 95.481 95.481" height="95.481" width="95.481"><g><svg viewBox="0 0 95.481 95.481" height="95.481" width="95.481"><g id="textblocktransform"><svg viewBox="0 0 95.481 95.481" height="95.481" width="95.481" id="textblock"><g><svg viewBox="0 0 95.481 95.481" height="95.481" width="95.481"><g><svg viewBox="0 0 95.481 95.481" height="95.481" width="95.481"><g><svg xmlns="http://www.w3.org/2000/svg" xmlns:xlink="http://www.w3.org/1999/xlink" version="1.1" x="0" y="0" viewBox="0 0 128 128" enable-background="new 0 0 128 128" xml:space="preserve" height="95.481" width="95.481" class="icon-icon-0" data-fill-palette-color="accent" id="icon-0"><rect x="37" y="97" width="4" height="4" fill="#ffffff" data-fill-palette-color="accent"></rect><rect x="38" y="113" width="36" height="4" fill="#ffffff" data-fill-palette-color="accent"></rect><rect x="21" y="97" width="4" height="4" fill="#ffffff" data-fill-palette-color="accent"></rect><rect x="21" y="113" width="4" height="4" fill="#ffffff" data-fill-palette-color="accent"></rect><rect x="69" y="97" width="4" height="4" fill="#ffffff" data-fill-palette-color="accent"></rect><rect x="53" y="97" width="4" height="4" fill="#ffffff" data-fill-palette-color="accent"></rect><rect x="85" y="97" width="4" height="4" fill="#ffffff" data-fill-palette-color="accent"></rect><rect x="102" y="113" width="4" height="4" fill="#ffffff" data-fill-palette-color="accent"></rect><rect x="101" y="97" width="4" height="4" fill="#ffffff" data-fill-palette-color="accent"></rect><rect x="86" y="113" width="4" height="4" fill="#ffffff" data-fill-palette-color="accent"></rect><path d="M124 0H4C1.791 0 0 1.791 0 4v14h128V4C128 1.791 126.209 0 124 0zM106 12h-4c-1.105 0-2-0.895-2-2s0.895-2 2-2h4c1.105 0 2 0.895 2 2S107.105 12 106 12zM118 12h-4c-1.105 0-2-0.895-2-2s0.895-2 2-2h4c1.105 0 2 0.895 2 2S119.105 12 118 12z" fill="#ffffff" data-fill-palette-color="accent"></path><path d="M0 38v26c0 2.209 1.791 4 4 4h54.67v4c0 2.209 1.791 4 4 4H106v3h-1c-2.209 0-4 1.791-4 4v3H14C8.477 86 4 90.477 4 96v22c0 5.523 4.477 10 10 10h100c5.523 0 10-4.477 10-10V96c0.026-5.155-3.871-9.485-9-10v-3c0-2.209-1.791-4-4-4h-1v-3c0-2.209-1.791-4-4-4H62.67v-4H124c2.209 0 4-1.791 4-4V22H0V38zM65 97c0-2.209 1.791-4 4-4h4c2.209 0 4 1.791 4 4v4c0 2.209-1.791 4-4 4h-4c-2.209 0-4-1.791-4-4V97zM49 97c0-2.209 1.791-4 4-4h4c2.209 0 4 1.791 4 4v4c0 2.209-1.791 4-4 4h-4c-2.209 0-4-1.791-4-4V97zM29 117c0 2.209-1.791 4-4 4h-4c-2.209 0-4-1.791-4-4v-4c0-2.209 1.791-4 4-4h4c2.209 0 4 1.791 4 4V117zM29 101c0 2.209-1.791 4-4 4h-4c-2.209 0-4-1.791-4-4v-4c0-2.209 1.791-4 4-4h4c2.209 0 4 1.791 4 4V101zM33 97c0-2.209 1.791-4 4-4h4c2.209 0 4 1.791 4 4v4c0 2.209-1.791 4-4 4h-4c-2.209 0-4-1.791-4-4V97zM78 117c0 2.209-1.791 4-4 4H38c-2.209 0-4-1.791-4-4v-4c0-2.209 1.791-4 4-4h36c2.209 0 4 1.791 4 4V117zM81 97c0-2.209 1.791-4 4-4h4c2.209 0 4 1.791 4 4v4c0 2.209-1.791 4-4 4h-4c-2.209 0-4-1.791-4-4V97zM94 117c0 2.209-1.791 4-4 4h-4c-2.209 0-4-1.791-4-4v-4c0-2.209 1.791-4 4-4h4c2.209 0 4 1.791 4 4V117zM97 97c0-2.209 1.791-4 4-4h4c2.209 0 4 1.791 4 4v4c0 2.209-1.791 4-4 4h-4c-2.209 0-4-1.791-4-4V97zM110 117c0 2.209-1.791 4-4 4h-4c-2.209 0-4-1.791-4-4v-4c0-2.209 1.791-4 4-4h4c2.209 0 4 1.791 4 4V117zM111 83v3h-6v-3H111zM116 43c0-1.105 0.895-2 2-2s2 0.895 2 2v21h-4V43zM8 43c0-1.105 0.895-2 2-2s2 0.895 2 2v21H8V43z" fill="#ffffff" data-fill-palette-color="accent"></path></svg></g></svg></g></svg></g></svg></g></svg></g></svg></g><defs></defs></svg><rect width="95.481" height="95.481" fill="none" stroke="none" visibility="hidden"></rect></g></svg></g></svg>